<svg width="18" height="18" viewBox="0 0 18 18" fill="none" xmlns="http://www.w3.org/2000/svg">
<path d="M9.8333 12.3333H4.8333C4.61229 12.3333 4.40032 12.4211 4.24404 12.5774C4.08776 12.7337 3.99997 12.9456 3.99997 13.1666C3.99997 13.3877 4.08776 13.5996 4.24404 13.7559C4.40032 13.9122 4.61229 14 4.8333 14H9.8333C10.0543 14 10.2663 13.9122 10.4226 13.7559C10.5788 13.5996 10.6666 13.3877 10.6666 13.1666C10.6666 12.9456 10.5788 12.7337 10.4226 12.5774C10.2663 12.4211 10.0543 12.3333 9.8333 12.3333ZM6.49997 7.33331H8.16663C8.38765 7.33331 8.59961 7.24551 8.75589 7.08923C8.91217 6.93295 8.99997 6.72099 8.99997 6.49998C8.99997 6.27896 8.91217 6.067 8.75589 5.91072C8.59961 5.75444 8.38765 5.66664 8.16663 5.66664H6.49997C6.27895 5.66664 6.06699 5.75444 5.91071 5.91072C5.75443 6.067 5.66663 6.27896 5.66663 6.49998C5.66663 6.72099 5.75443 6.93295 5.91071 7.08923C6.06699 7.24551 6.27895 7.33331 6.49997 7.33331ZM16.5 8.99998H14V1.49998C14.0005 1.35313 13.9623 1.20875 13.8892 1.08143C13.816 0.954116 13.7105 0.848396 13.5833 0.774976C13.4566 0.701835 13.3129 0.66333 13.1666 0.66333C13.0204 0.66333 12.8766 0.701835 12.75 0.774976L10.25 2.20831L7.74997 0.774976C7.62328 0.701835 7.47958 0.66333 7.3333 0.66333C7.18702 0.66333 7.04332 0.701835 6.91663 0.774976L4.41663 2.20831L1.91663 0.774976C1.78995 0.701835 1.64625 0.66333 1.49997 0.66333C1.35369 0.66333 1.20998 0.701835 1.0833 0.774976C0.956129 0.848396 0.850617 0.954116 0.777448 1.08143C0.704278 1.20875 0.66605 1.35313 0.666633 1.49998V14.8333C0.666633 15.4964 0.930025 16.1322 1.39887 16.6011C1.86771 17.0699 2.50359 17.3333 3.16663 17.3333H14.8333C15.4963 17.3333 16.1322 17.0699 16.6011 16.6011C17.0699 16.1322 17.3333 15.4964 17.3333 14.8333V9.83331C17.3333 9.6123 17.2455 9.40033 17.0892 9.24405C16.9329 9.08777 16.721 8.99998 16.5 8.99998ZM3.16663 15.6666C2.94562 15.6666 2.73366 15.5788 2.57738 15.4226C2.4211 15.2663 2.3333 15.0543 2.3333 14.8333V2.94164L3.99997 3.89164C4.12858 3.95882 4.27153 3.9939 4.41663 3.9939C4.56173 3.9939 4.70468 3.95882 4.8333 3.89164L7.3333 2.45831L9.8333 3.89164C9.96191 3.95882 10.1049 3.9939 10.25 3.9939C10.3951 3.9939 10.538 3.95882 10.6666 3.89164L12.3333 2.94164V14.8333C12.3356 15.1176 12.3863 15.3994 12.4833 15.6666H3.16663ZM15.6666 14.8333C15.6666 15.0543 15.5788 15.2663 15.4226 15.4226C15.2663 15.5788 15.0543 15.6666 14.8333 15.6666C14.6123 15.6666 14.4003 15.5788 14.244 15.4226C14.0878 15.2663 14 15.0543 14 14.8333V10.6666H15.6666V14.8333ZM9.8333 8.99998H4.8333C4.61229 8.99998 4.40032 9.08777 4.24404 9.24405C4.08776 9.40033 3.99997 9.6123 3.99997 9.83331C3.99997 10.0543 4.08776 10.2663 4.24404 10.4226C4.40032 10.5788 4.61229 10.6666 4.8333 10.6666H9.8333C10.0543 10.6666 10.2663 10.5788 10.4226 10.4226C10.5788 10.2663 10.6666 10.0543 10.6666 9.83331C10.6666 9.6123 10.5788 9.40033 10.4226 9.24405C10.2663 9.08777 10.0543 8.99998 9.8333 8.99998Z" fill="#797979"/>
</svg>
